<?xml version="1.0" encoding="utf-8"?>
<!-- Generator: Adobe Illustrator 21.0.0, SVG Export Plug-In . SVG Version: 6.00 Build 0)  -->
<svg version="1.2" baseProfile="tiny" id="Camada_1"
	 xmlns="http://www.w3.org/2000/svg" xmlns:xlink="http://www.w3.org/1999/xlink" x="0px" y="0px" viewBox="0 0 589 224"
	 xml:space="preserve">
<text transform="matrix(1.01 0 0 1 0 88)" fill="#7F0000" font-family="'Century Gothic'" font-size="100px">Rocha Leite</text>
<text transform="matrix(1.01 0 0 1 6.9648 161)" font-family="'Century Gothic'" font-size="48px">a</text>
<text transform="matrix(1.01 0 0 1 70.7695 161)" font-family="'Century Gothic'" font-size="48px">r</text>
<text transform="matrix(1.01 0 0 1 116.0879 161)" font-family="'Century Gothic'" font-size="48px">q</text>
<text transform="matrix(1.01 0 0 1 179.8452 161)" font-family="'Century Gothic'" font-size="48px">u</text>
<text transform="matrix(1.01 0 0 1 240.0532 161)" font-family="'Century Gothic'" font-size="48px">i</text>
<text transform="matrix(1.01 0 0 1 280.4463 161)" font-family="'Century Gothic'" font-size="48px">t</text>
<text transform="matrix(1.01 0 0 1 327.6113 161)" font-family="'Century Gothic'" font-size="48px">e</text>
<text transform="matrix(1.01 0 0 1 389.8545 161)" font-family="'Century Gothic'" font-size="48px">c</text>
<text transform="matrix(1.01 0 0 1 451.9561 161)" font-family="'Century Gothic'" font-size="48px">t</text>
<text transform="matrix(1.01 0 0 1 499.1211 161)" font-family="'Century Gothic'" font-size="48px">o</text>
<text transform="matrix(1.01 0 0 1 561.6006 161)" font-family="'Century Gothic'" font-size="48px">s</text>
<text transform="matrix(1.01 0 0 1 580.4199 161)" font-family="'Century Gothic'" font-size="48px"> </text>
<text transform="matrix(1 0 0 1 6.9648 218.5996)" font-family="'Century Gothic'" font-size="48px">a</text>
<text transform="matrix(1 0 0 1 74.1699 218.5996)" font-family="'Century Gothic'" font-size="48px">s</text>
<text transform="matrix(1 0 0 1 127.2188 218.5996)" font-family="'Century Gothic'" font-size="48px">s</text>
<text transform="matrix(1 0 0 1 180.2676 218.5996)" font-family="'Century Gothic'" font-size="48px">o</text>
<text transform="matrix(1 0 0 1 246.1611 218.5996)" font-family="'Century Gothic'" font-size="48px">c</text>
<text transform="matrix(1 0 0 1 311.6797 218.5996)" font-family="'Century Gothic'" font-size="48px">i</text>
<text transform="matrix(1 0 0 1 355.7051 218.5996)" font-family="'Century Gothic'" font-size="48px">a</text>
<text transform="matrix(1 0 0 1 422.9102 218.5996)" font-family="'Century Gothic'" font-size="48px">d</text>
<text transform="matrix(1 0 0 1 490.209 218.5996)" font-family="'Century Gothic'" font-size="48px">o</text>
<text transform="matrix(1 0 0 1 556.1025 218.5996)" font-family="'Century Gothic'" font-size="48px">s</text>
</svg>
