<?xml version="1.0" ?><!DOCTYPE svg  PUBLIC '-//W3C//DTD SVG 1.1//EN'  'http://www.w3.org/Graphics/SVG/1.1/DTD/svg11.dtd'><svg id="Layer_1" style="enable-background:new 0 0 30.1 30.2;" version="1.1" viewBox="0 0 30.1 30.2" xml:space="preserve" xmlns="http://www.w3.org/2000/svg" xmlns:xlink="http://www.w3.org/1999/xlink"><style type="text/css">
	.st0{fill:none;stroke:#414042;stroke-width:1.25;stroke-linecap:round;stroke-linejoin:round;stroke-miterlimit:10;}
	.st1{fill:none;stroke:#414042;stroke-width:1.1713;stroke-linecap:round;stroke-linejoin:round;stroke-miterlimit:10;}
</style><path class="st0" d="M4.9,19.2c-1.9-1.9-2.8-5.5-2.8-8.1c0-6.1,5.6-9.9,13-9.9s13.3,4.9,13.3,11c0,5.1-4.8,10.2-12.8,9.9  c0,0,0-0.1,0,3.8S9.8,30.6,6.9,29l0.8-3.8c0,0,2.9,0.9,3.1,0.1v-16H16v8.2c0,0,8.3,0.6,7.9-5.2c-0.3-4.8-5.1-6.9-9.1-7  C2.2,5.2,7.7,17,7.7,17"/></svg>